<?xml version="1.0"?>
<svg version="1.1" xmlns="http://www.w3.org/2000/svg" width="450px" height="200px" style="border: dashed 2px #aaa"><path fill="#" d="M201.84169921875,97.908203125q-0.0234375-0.310546875,0.052734375-0.5859375t0.287109375-0.45703125t0.71484375-0.181640625q0.1171875,0,0.287109375,0.0234375t0.33984375,0.076171875t0.275390625,0.146484375t0.10546875,0.2578125q0,0.43359375,0.029296875,1.142578125t0.076171875,1.4765625t0.087890625,1.5t0.076171875,1.189453125q0.9140625-0.046875,1.83984375-0.046875t1.828125-0.046875l1.6171875-0.046875l0-1.16015625q0-1.9453125-0.076171875-3.896484375t-0.263671875-3.896484375q0-0.140625,0.1171875-0.228515625t0.275390625-0.134765625t0.328125-0.05859375t0.263671875-0.01171875q0.26953125,0,0.580078125,0.08203125t0.357421875,0.3515625l0.0703125,0.50390625q0.29296875,2.109375,0.3984375,4.171875t0.15234375,4.125q0.140625,0.0234375,0.298828125,0.076171875t0.322265625,0.099609375q0.1171875,0.046875,0.333984375,0.140625t0.216796875,0.29296875q0,0.1875-0.1640625,0.29296875t-0.369140625,0.158203125t-0.3984375,0.064453125t-0.240234375,0.01171875q0.0234375,0.8671875,0.0234375,1.728515625l0,1.728515625l0,3.78515625l0,2.109375q0,0.140625-0.134765625,0.251953125t-0.322265625,0.181640625t-0.392578125,0.09375t-0.369140625,0.0234375t-0.38671875-0.0234375t-0.3984375-0.09375t-0.310546875-0.17578125t-0.134765625-0.2578125l0-0.50390625q0.046875-2.2265625,0.10546875-4.412109375t0.1171875-4.388671875q-1.27734375,0.046875-2.595703125,0.05859375t-2.619140625,0.05859375q0.140625,1.65234375,0.322265625,3.298828125t0.380859375,3.298828125q0,0.140625-0.134765625,0.251953125t-0.31640625,0.181640625t-0.38671875,0.09375t-0.369140625,0.0234375q-0.33984375,0-0.744140625-0.1171875t-0.451171875-0.43359375q-0.140625-1.2421875-0.263671875-2.7421875t-0.216796875-3.064453125t-0.146484375-3.064453125t-0.052734375-2.71875q0-0.29296875-0.0234375-0.603515625z M215.23236328125,105.015625q0-0.33984375,0.193359375-0.4453125t0.486328125-0.10546875q0.48046875,0,0.732421875,0.181640625t0.251953125,0.638671875q0,0.55078125,0.08203125,1.376953125t0.240234375,1.60546875t0.375,1.341796875t0.451171875,0.5625q0.43359375,0,0.767578125-0.66796875t0.5859375-1.640625t0.43359375-2.091796875t0.251953125-1.998046875q0.046875-0.48046875,0.228515625-0.697265625t0.662109375-0.216796875q0.55078125,0,0.802734375,0.45703125t0.322265625,1.125q0.05859375,0.57421875,0.05859375,1.1953125l0,0.19921875l0,0.46875q0,0.4453125,0.01171875,0.796875l0.33984375,7.18359375l0.046875,1.1953125q0.0234375,0.1640625,0.03515625,0.310546875t0.01171875,0.310546875q0,0.66796875-0.287109375,0.861328125t-0.931640625,0.193359375q-0.140625,0-0.357421875-0.0234375t-0.421875-0.09375t-0.3515625-0.193359375t-0.146484375-0.310546875l0.046875-0.1171875q0.05859375-0.703125,0.05859375-1.4765625l0-0.24609375q-0.01171875-0.9140625-0.05859375-1.8515625t-0.10546875-1.875t-0.05859375-1.8046875q-0.1640625,0.36328125-0.380859375,0.75t-0.50390625,0.697265625t-0.650390625,0.515625t-0.8203125,0.205078125q-0.66796875,0-1.1015625-0.3515625t-0.673828125-0.9140625t-0.345703125-1.259765625t-0.140625-1.39453125t-0.046875-1.330078125t-0.09375-1.06640625z M225.00193359375,107.48828125q0-0.9140625,0.193359375-1.658203125t0.615234375-1.259765625t1.107421875-0.802734375t1.669921875-0.287109375q0.55078125,0,1.125,0.146484375t0.984375,0.544921875q0-0.234375,0.046875-0.966796875t0.1171875-1.705078125t0.146484375-2.0390625t0.134765625-1.98046875t0.10546875-1.53515625t0.0703125-0.703125q0.1171875-0.33984375,0.43359375-0.404296875t0.59765625-0.064453125q0.73828125,0,0.908203125,0.234375t0.169921875,0.9375q0,2.56640625-0.228515625,5.109375t-0.228515625,5.109375q0,1.65234375,0.064453125,3.322265625t0.462890625,3.287109375l0.12890625,0.1171875l0.0703125,0.2109375l-0.17578125,0.26953125q-0.4453125,0.28125-1.03125,0.28125l-0.046875,0q-0.59765625,0-1.1015625-0.28125q-0.1875-0.1171875-0.310546875-0.697265625t-0.193359375-1.27734375t-0.10546875-1.341796875t-0.05859375-0.9140625q-0.41015625,0.9375-1.119140625,1.611328125t-1.787109375,0.673828125q-0.84375,0-1.3828125-0.36328125t-0.837890625-0.92578125t-0.421875-1.259765625t-0.123046875-1.388671875z M226.41990234375,107.55859375q0,0.26953125,0.064453125,0.796875t0.205078125,1.0546875t0.392578125,0.9375t0.662109375,0.41015625q0.55078125-0.26953125,0.99609375-0.896484375t0.767578125-1.3828125t0.50390625-1.51171875t0.181640625-1.306640625q0-0.69140625-0.50390625-1.1484375t-1.20703125-0.45703125q-0.2109375,0-0.427734375,0.08203125t-0.404296875,0.1875q-0.43359375,0.41015625-0.673828125,0.744140625t-0.36328125,0.69140625t-0.158203125,0.791015625t-0.03515625,1.0078125z M236.09572265625,107.34765625q0-1.078125,0.251953125-2.115234375t0.427734375-2.068359375q0.046875-0.26953125,0.369140625-0.333984375t0.544921875-0.064453125q0.38671875,0,0.62109375,0.1171875q0.09375,0.046875,0.17578125,0.10546875t0.08203125,0.15234375q0,1.0078125-0.240234375,1.96875t-0.240234375,2.0390625q0,0.36328125,0.052734375,0.685546875t0.099609375,0.638671875l0.0703125,0.33984375q0,0.09375,0.01171875,0.1640625t0.03515625,0.1640625q0,0.2109375-0.298828125,0.287109375t-0.521484375,0.076171875q-0.33984375,0-0.626953125-0.134765625t-0.451171875-0.462890625l-0.1640625-0.33984375q-0.140625-0.26953125-0.140625-0.603515625t-0.05859375-0.615234375z M236.84572265625,100.29296875l0-0.22265625q0-0.55078125,0.275390625-0.984375t0.826171875-0.43359375q0.0703125,0,0.134765625,0.01171875t0.134765625,0.01171875q0.140625,0.0234375,0.369140625,0.111328125t0.228515625,0.275390625l0,0.0234375q-0.046875,0.09375-0.05859375,0.193359375t-0.05859375,0.169921875l0.0234375-0.0234375q-0.140625,0.36328125-0.228515625,0.5859375t-0.193359375,0.357421875t-0.263671875,0.193359375t-0.451171875,0.05859375q-0.046875,0-0.1640625-0.01171875t-0.251953125-0.046875t-0.228515625-0.09375t-0.09375-0.17578125z M241.21294921875,104.34765625q0-0.48046875,0.169921875-0.80859375t0.720703125-0.328125q0.2109375,0,0.52734375,0.064453125t0.36328125,0.322265625q0.1171875,0.69140625,0.12890625,1.5t0.08203125,1.5234375q0.26953125-0.52734375,0.69140625-1.13671875t0.9609375-1.125t1.171875-0.85546875t1.2890625-0.33984375q0.046875,0,0.17578125,0.03515625t0.240234375,0.099609375t0.134765625,0.146484375t-0.12890625,0.15234375q-0.046875,0.140625-0.19921875,0.169921875t-0.26953125,0.029296875q-0.0703125,0-0.22265625-0.05859375q-0.8671875,0.45703125-1.4765625,1.2421875t-0.99609375,1.740234375t-0.5625,2.015625t-0.17578125,2.068359375q0,0.50390625-0.228515625,0.609375t-0.732421875,0.10546875q-0.26953125,0-0.568359375-0.05859375t-0.416015625-0.375q-0.2109375-0.66796875-0.345703125-1.53515625t-0.205078125-1.787109375t-0.099609375-1.810546875t-0.029296875-1.60546875z"/></svg>
